<svg width="232" height="69" viewBox="0 0 232 69" fill="none" xmlns="http://www.w3.org/2000/svg">
<path d="M59.7178 38.2235H66.8085V60.3821H73.7884V38.2235H80.8792V32.7947H59.7178V38.2235Z" fill="#54653d"/>
<path d="M89.2988 32.6838H83.4268V38.1127H89.2988V32.6838Z" fill="#54653d"/>
<path d="M89.2988 39.7747H83.4268V60.1605H89.2988V39.7747Z" fill="#54653d"/>
<path d="M106.694 41.6582C105.807 40.7719 104.367 39.4424 101.265 39.4424C94.5065 39.4424 92.623 45.3144 92.623 49.4137C92.623 52.9591 93.6202 56.0613 96.39 57.834C97.7195 58.7203 99.3814 59.1635 101.043 59.1635C103.813 59.1635 105.253 58.2772 106.472 57.5016V59.7175C106.472 61.3793 106.472 63.4844 102.816 63.4844C101.93 63.4844 101.265 63.2628 100.933 63.0412C99.3814 62.2657 99.2706 61.047 99.1598 60.1606H92.9554C92.9554 61.2686 92.9554 63.2628 94.5065 64.9247C95.6145 66.0326 98.2735 67.473 102.262 67.473C104.145 67.473 107.137 67.1406 109.242 65.9219C112.233 64.26 112.233 61.6009 112.344 59.3851V39.7748H106.694V41.6582V41.6582ZM102.594 54.621C98.9382 54.621 98.8274 51.0756 98.8274 49.4137C98.8274 46.5331 99.4922 44.0957 102.373 43.9849C104.035 43.8741 105.143 44.7604 105.697 45.4252C106.361 46.4223 106.472 48.4166 106.472 49.4137C106.361 52.2943 105.697 54.621 102.594 54.621Z" fill="#54653d"/>
<path d="M133.395 42.1013C130.736 39.3315 127.301 39.2207 126.082 39.2207C118.105 39.2207 115.668 45.5359 115.668 50.4108C115.668 57.0583 119.878 60.9361 125.972 60.9361C129.295 60.9361 131.844 59.7174 133.616 58.0555C134.614 57.0583 135.389 56.0612 136.054 55.0641L131.511 52.7374C130.736 54.1777 129.628 56.2828 126.415 56.2828C123.202 56.2828 121.762 53.7346 121.762 51.1863H136.275C136.275 48.8597 136.054 44.9819 133.395 42.1013ZM121.872 47.4194C122.094 46.533 122.316 45.6467 123.091 44.7603C123.645 44.0956 124.642 43.4308 126.082 43.4308C127.08 43.4308 128.298 43.874 128.963 44.5388C129.849 45.4251 129.96 46.533 130.071 47.4194H121.872Z" fill="#54653d"/>
<path d="M145.472 39.7746H139.6V60.1604H145.582V48.7488C145.582 46.2005 146.469 45.7574 149.349 45.2034L151.344 44.871V39.553C148.241 39.8854 146.801 40.7717 145.472 41.8796V39.7746Z" fill="#54653d"/>
<path d="M171.397 32.6838H150.235V38.1127H157.437V60.1604H164.306V38.1127H171.397V32.6838Z" fill="#54653d"/>
<path d="M183.474 52.5159C183.474 53.6238 183.363 54.6209 182.144 55.3965C181.258 55.9504 180.482 55.9504 180.039 55.9504C178.82 55.9504 178.045 55.3965 177.713 54.9533C177.269 54.2886 177.269 53.4022 177.269 52.5159V39.8855H171.176V52.6267C171.176 55.9504 171.397 57.1692 172.395 58.6095C173.835 60.6037 176.272 60.7145 177.602 60.7145C178.931 60.7145 180.261 60.3822 181.48 59.8282C182.587 59.2742 182.92 58.9418 183.474 58.2771V60.2714H189.457V39.8855H183.474V52.5159Z" fill="#54653d"/>
<path d="M199.649 39.7746H193.777V60.1604H199.76V48.7488C199.76 46.2005 200.646 45.7574 203.527 45.2034L205.521 44.871V39.553C202.419 39.8854 200.979 40.7717 199.649 41.8796V39.7746Z" fill="#54653d"/>
<path d="M219.591 37.1156H221.032V32.6839C219.813 32.5731 218.705 32.3516 217.486 32.3516C214.716 32.3516 213.055 33.4595 212.279 34.4566C211.503 35.5646 211.393 36.8941 211.393 37.8912V39.8855H208.18V44.428H211.393V60.1605H217.375V44.428H221.364V39.8855H217.375C217.265 37.5588 217.375 37.1156 219.591 37.1156Z" fill="#54653d"/>
<path d="M224.023 33.3487H225.464V37.1156H226.018V33.3487H227.458V32.9055H224.023V33.3487Z" fill="#54653d"/>
<path d="M231.225 32.9055L230.006 36.4509L228.787 32.9055H228.012V37.1156H228.566V34.5674C228.566 34.4566 228.566 34.3458 228.566 34.1242C228.566 33.9027 228.566 33.7919 228.566 33.6811V33.5703L229.784 37.1156H230.338L231.557 33.5703C231.557 33.7919 231.557 34.0134 231.557 34.235C231.557 34.4566 231.557 34.5674 231.557 34.6782V37.2264H232.111V33.0163H231.225V32.9055Z" fill="#54653d"/>
<path d="M47.9739 0.11084H0.333008V67.2512H47.9739V0.11084Z" fill="black"/>
<path d="M0.111328 35.8968C1.88401 34.3457 3.10273 33.5702 5.31859 32.6839C6.75889 32.1299 7.75603 31.9083 9.41792 31.5759C9.86109 32.4623 10.1935 33.0162 10.5258 33.7918C11.523 36.0076 12.0769 37.3372 13.628 39.3314C16.841 43.4308 19.8324 44.8711 24.7073 46.6437C29.2498 48.1948 32.1304 48.5272 36.8945 47.9733C36.119 49.6351 35.565 50.4107 34.3463 51.851C33.1276 53.1805 32.352 53.8453 30.9117 54.7316C30.4685 53.2913 29.693 52.405 28.2527 51.7402C26.7016 51.0755 26.0368 51.1862 24.0426 52.0726C21.0512 52.9589 19.2785 53.0697 16.1763 52.7373C12.7417 52.405 10.8582 51.4078 7.64523 49.8567C4.43225 48.1948 1.88401 45.7574 0.111328 44.6495V35.8968V35.8968Z" fill="#54653d"/>
<path d="M0.111328 35.8968C1.88401 34.3457 3.10273 33.5702 5.31859 32.6839C6.75889 32.1299 7.75603 31.9083 9.41792 31.5759C9.86109 32.4623 10.1935 33.0162 10.5258 33.7918C11.523 36.0076 12.0769 37.3372 13.628 39.3314C16.841 43.4308 19.8324 44.8711 24.7073 46.6437C29.2498 48.1948 32.1304 48.5272 36.8945 47.9733C36.119 49.6351 35.565 50.4107 34.3463 51.851C33.1276 53.1805 32.352 53.8453 30.9117 54.7316C30.4685 53.2913 29.693 52.405 28.2527 51.7402C26.7016 51.0755 26.0368 51.1862 24.0426 52.0726C21.0512 52.9589 19.2785 53.0697 16.1763 52.7373C12.7417 52.405 10.8582 51.4078 7.64523 49.8567C4.43225 48.1948 1.88401 45.7574 0.111328 44.6495V35.8968V35.8968Z" stroke="#54653d" stroke-width="0.15511" stroke-miterlimit="3.864"/>
<path d="M0.111328 28.8061C0.776085 29.1385 4.21066 27.3658 5.65097 26.4795C7.97761 25.15 9.6395 23.7096 12.8525 22.8233C18.2813 21.2722 21.9375 19.6103 27.3663 21.2722C30.9117 22.3801 32.5736 23.9312 35.3434 26.4795C38.224 29.2493 39.6643 31.1328 41.2154 34.7889C42.8773 38.5559 42.9881 40.7717 43.5421 45.0926C44.8716 40.5501 44.9824 37.7803 44.3176 33.127C43.8745 30.468 43.3205 29.0277 42.4342 26.4795C41.437 23.8204 40.3291 22.6017 39.5535 19.8319C38.6672 17.0621 38.0024 15.4002 38.224 12.4088C38.4456 9.085 39.5535 7.42311 41.1046 4.5425C42.3234 2.32665 42.9881 1.66189 44.65 0.110793H34.4571C34.1247 2.21585 33.9031 3.43458 33.7923 5.53964C33.6815 7.75549 33.4599 8.97421 33.6815 11.1901C33.9031 13.0735 34.1247 14.1815 34.6787 16.0649C35.3434 18.3916 35.8974 19.6103 37.0053 21.7154L35.565 19.4995C34.5679 17.8376 34.1247 16.9513 33.3492 15.1786C32.5736 13.4059 32.0196 12.5196 31.4657 10.6361C30.9117 8.75263 30.6901 7.6447 30.3577 5.65043C30.0254 3.43457 29.9146 2.21585 30.0254 0L15.6223 0C17.8382 1.32951 19.0569 2.21585 20.9404 3.87775C25.1505 7.53391 28.2527 12.0764 29.9146 15.1786C30.3577 15.9542 30.9117 17.3945 31.4657 18.724C30.247 17.2837 29.5822 16.3973 28.2527 14.957C26.3692 12.852 25.3721 11.744 23.267 9.86055C20.608 7.42311 19.0569 6.20439 16.0655 4.21012C13.1849 2.32665 11.4122 1.32951 8.30999 0H0.332914V10.4145C2.99194 9.63897 4.76462 9.41738 7.53444 9.41738C10.3043 9.41738 11.9662 9.52818 14.6252 10.3037C16.9518 10.9685 18.1705 11.5224 20.1648 12.7412C22.6023 14.1815 23.9318 15.2894 25.8152 17.5053C21.0512 15.6218 18.0598 14.957 12.9633 14.6246C9.30713 14.4031 7.09127 14.2923 3.43511 15.1786C2.1056 15.511 1.33005 15.7326 0.111328 16.2865V28.8061Z" fill="#54653d"/>
<path d="M0.111328 28.8061C0.776085 29.1385 4.21066 27.3658 5.65097 26.4795C7.97761 25.15 9.6395 23.7096 12.8525 22.8233C18.2813 21.2722 21.9375 19.6103 27.3663 21.2722C30.9117 22.3801 32.5736 23.9312 35.3434 26.4795C38.224 29.2493 39.6643 31.1328 41.2154 34.7889C42.8773 38.5559 42.9881 40.7717 43.5421 45.0926C44.8716 40.5501 44.9824 37.7803 44.3176 33.127C43.8745 30.468 43.3205 29.0277 42.4342 26.4795C41.437 23.8204 40.3291 22.6017 39.5535 19.8319C38.6672 17.0621 38.0024 15.4002 38.224 12.4088C38.4456 9.085 39.5535 7.42311 41.1046 4.5425C42.3234 2.32665 42.9881 1.66189 44.65 0.110793H34.4571C34.1247 2.21585 33.9031 3.43458 33.7923 5.53964C33.6815 7.75549 33.4599 8.97421 33.6815 11.1901C33.9031 13.0735 34.1247 14.1815 34.6787 16.0649C35.3434 18.3916 35.8974 19.6103 37.0053 21.7154L35.565 19.4995C34.5679 17.8376 34.1247 16.9513 33.3492 15.1786C32.5736 13.4059 32.0196 12.5196 31.4657 10.6361C30.9117 8.75263 30.6901 7.6447 30.3577 5.65043C30.0254 3.43457 29.9146 2.21585 30.0254 0L15.6223 0C17.8382 1.32951 19.0569 2.21585 20.9404 3.87775C25.1505 7.53391 28.2527 12.0764 29.9146 15.1786C30.3577 15.9542 30.9117 17.3945 31.4657 18.724C30.247 17.2837 29.5822 16.3973 28.2527 14.957C26.3692 12.852 25.3721 11.744 23.267 9.86055C20.608 7.42311 19.0569 6.20439 16.0655 4.21012C13.2957 2.54823 11.6338 1.5511 8.53158 0.221585H0.443706V10.5253C3.10273 9.74976 4.76462 9.52818 7.53444 9.52818C10.3043 9.52818 11.9662 9.63897 14.6252 10.4145C16.9518 11.0793 18.1705 11.6332 20.1648 12.852C22.6023 14.2923 23.9318 15.4002 25.8152 17.616C21.0512 15.7326 18.0598 15.0678 12.9633 14.7354C9.30713 14.5138 7.09127 14.4031 3.43511 15.2894C2.1056 15.6218 1.33005 15.8434 0.111328 16.3973V28.8061Z" stroke="#54653d" stroke-width="0.0232665" stroke-miterlimit="3.864"/>
<path d="M5.65137 26.4795C5.65137 26.4795 19.9436 18.8348 29.2502 23.2665C35.233 26.1471 37.4489 30.0248 40.4403 35.8969C42.1022 39.3314 42.8777 41.4365 43.5425 45.0926C43.6533 28.0306 33.7927 21.2722 29.4718 20.0535C24.1538 18.6132 17.063 18.8348 7.64564 24.8176C6.98088 25.3715 5.65137 26.4795 5.65137 26.4795Z" fill="white"/>
<path d="M5.65137 26.4795C5.65137 26.4795 19.9436 18.8348 29.2502 23.2665C35.233 26.1471 37.4489 30.0248 40.4403 35.8969C42.1022 39.3314 42.8777 41.4365 43.5425 45.0926C43.6533 28.0306 33.7927 21.2722 29.4718 20.0535C24.1538 18.6132 17.063 18.8348 7.64564 24.8176C6.98088 25.3715 5.65137 26.4795 5.65137 26.4795Z" stroke="white" stroke-width="0.0232665" stroke-miterlimit="3.864"/>
<path d="M48.3059 4.21021C45.4252 6.20447 44.0957 8.08795 43.0986 11.5225C42.3231 13.96 42.4338 15.6219 42.7662 18.1701C43.2094 21.3831 44.7605 22.7126 45.7576 25.8148C47.0871 29.9141 47.5303 32.2408 48.0843 36.5617L48.3059 4.21021Z" fill="#54653d"/>
<path d="M48.3059 4.21021C45.4252 6.20447 44.0957 8.08795 43.0986 11.5225C42.3231 13.96 42.4338 15.6219 42.7662 18.1701C43.2094 21.3831 44.7605 22.7126 45.7576 25.8148C47.0871 29.9141 47.5303 32.2408 48.0843 36.5617L48.3059 4.21021Z" stroke="#54653d" stroke-width="0.0232665" stroke-miterlimit="3.864"/>
<path d="M22.8237 38.3343C27.477 40.2178 30.8008 38.0019 31.3547 37.5588C33.5706 35.6753 34.0138 32.6839 33.0166 29.6925C34.5677 31.2436 35.5649 32.4623 36.4512 34.3458C37.5591 36.5616 37.8915 38.0019 38.0023 40.5502C36.4512 39.7746 35.7864 39.553 34.1246 39.4422C32.9058 39.4422 31.9087 39.6638 30.69 39.7746C28.5849 39.8854 25.1503 39.9962 22.6021 38.7775C18.7244 37.3372 17.9488 36.5616 15.8438 34.4566C13.9603 32.5731 13.2955 31.1328 12.4092 28.5846C13.8495 28.2522 14.625 28.0306 15.9545 27.6982C17.9488 27.1443 18.946 26.3687 20.9402 26.0363C22.0481 25.9255 23.1561 25.8147 24.264 25.9255C21.8266 26.7011 20.0539 28.2522 19.3891 30.6896C18.8352 32.9055 19.0567 34.6782 20.4971 36.5616C21.1618 37.5588 22.0481 37.8911 22.8237 38.3343Z" fill="#FFED00"/>
<path d="M22.8237 38.3343C27.477 40.2178 30.8008 38.0019 31.3547 37.5588C33.5706 35.6753 34.0138 32.6839 33.0166 29.6925C34.5677 31.2436 35.5649 32.4623 36.4512 34.3458C37.5591 36.5616 37.8915 38.0019 38.0023 40.5502C36.4512 39.7746 35.7864 39.553 34.1246 39.4422C32.9058 39.4422 31.9087 39.6638 30.69 39.7746C28.5849 39.8854 25.1503 39.9962 22.6021 38.7775C18.7244 37.3372 17.9488 36.5616 15.8438 34.4566C13.9603 32.5731 13.2955 31.1328 12.4092 28.5846C13.8495 28.2522 14.625 28.0306 15.9545 27.6982C17.9488 27.1443 18.946 26.3687 20.9402 26.0363C22.0481 25.9255 23.1561 25.8147 24.264 25.9255C21.8266 26.7011 20.0539 28.2522 19.3891 30.6896C18.8352 32.9055 19.0567 34.6782 20.4971 36.5616C21.1618 37.5588 22.0481 37.8911 22.8237 38.3343Z" stroke="#FFED00" stroke-width="0.15511" stroke-miterlimit="3.864"/>
<path d="M19.2783 32.4624C19.2783 28.5846 22.4913 25.4824 26.4798 25.4824C30.4684 25.4824 33.6814 28.5846 33.6814 32.4624C33.6814 36.3401 30.4684 39.4423 26.4798 39.4423C22.4913 39.5531 19.2783 36.3401 19.2783 32.4624Z" fill="black"/>
<path d="M19.2783 32.4624C19.2783 28.5846 22.4913 25.4824 26.4798 25.4824C30.4684 25.4824 33.6814 28.5846 33.6814 32.4624C33.6814 36.3401 30.4684 39.4423 26.4798 39.4423C22.4913 39.5531 19.2783 36.3401 19.2783 32.4624Z" stroke="black" stroke-width="0.0232665" stroke-miterlimit="3.864"/>
<path d="M24.707 28.363H26.3689V30.0249C26.0365 29.8033 25.7042 29.6925 25.3718 29.8033C25.0394 29.9141 24.8178 30.1357 24.707 30.5789V28.363Z" fill="white"/>
<path d="M24.707 28.363H26.3689V30.0249C26.0365 29.8033 25.7042 29.6925 25.3718 29.8033C25.0394 29.9141 24.8178 30.1357 24.707 30.5789V28.363Z" stroke="white" stroke-width="0.0232665" stroke-miterlimit="3.864"/>
<path d="M0.333008 52.7373C3.4352 49.4135 5.0971 47.4192 7.75612 43.7631C10.1936 40.4393 11.4123 38.445 13.2958 34.8997C12.8526 40.2177 12.2986 43.2091 10.6367 48.1948C8.42088 54.7316 6.5374 58.3877 2.32728 63.9274C6.31582 60.0496 8.53167 57.723 11.9662 53.2913C15.6224 48.638 17.5059 45.8681 20.3865 40.6609C19.8325 45.6466 19.2786 50.0783 16.8411 55.5071C14.8469 59.9388 13.4066 62.3763 10.1936 66.0324C14.5145 62.1547 16.6195 59.6064 20.6081 55.3963C25.8153 49.9675 26.1477 48.5272 29.2499 43.8739C28.696 48.9703 27.9204 51.8509 25.9261 56.615C24.2642 60.4928 23.0455 62.4871 20.6081 65.9216C24.929 63.3734 27.0341 61.2683 30.9118 58.1661C35.5651 54.3992 36.1191 52.8481 38.8889 48.9703C38.2241 52.8481 37.5594 54.9531 35.8975 58.4985C34.3464 61.9331 33.1277 63.7058 30.6902 66.5864C34.3464 64.5921 36.3406 63.041 39.1105 59.9388C40.9939 57.8338 41.8803 56.5042 43.3206 54.0668C43.099 56.9474 42.7666 58.6093 41.7695 61.2683C40.9939 63.4842 40.3292 64.7029 39.1105 66.808C40.8832 65.8108 41.7695 65.0353 43.2098 63.7058C44.6501 62.2655 45.4257 61.3791 46.4228 59.6064C46.5336 61.7115 46.6444 63.2626 45.8688 66.0324C45.5364 67.2511 44.9825 67.8051 44.2069 68.8022H0.333008V52.7373Z" fill="white"/>
<path d="M0.333008 52.7373C3.4352 49.4135 5.0971 47.4192 7.75612 43.7631C10.1936 40.4393 11.4123 38.445 13.2958 34.8997C12.8526 40.2177 12.2986 43.2091 10.6367 48.1948C8.42088 54.7316 6.5374 58.3877 2.32728 63.9274C6.31582 60.0496 8.53167 57.723 11.9662 53.2913C15.6224 48.638 17.5059 45.8681 20.3865 40.6609C19.8325 45.6466 19.2786 50.0783 16.8411 55.5071C14.8469 59.9388 13.4066 62.3763 10.1936 66.0324C14.5145 62.1547 16.6195 59.6064 20.6081 55.3963C25.8153 49.9675 26.1477 48.5272 29.2499 43.8739C28.696 48.9703 27.9204 51.8509 25.9261 56.615C24.2642 60.4928 23.0455 62.4871 20.6081 65.9216C24.929 63.3734 27.0341 61.2683 30.9118 58.1661C35.5651 54.3992 36.1191 52.8481 38.8889 48.9703C38.2241 52.8481 37.5594 54.9531 35.8975 58.4985C34.3464 61.9331 33.1277 63.7058 30.6902 66.5864C34.3464 64.5921 36.3406 63.041 39.1105 59.9388C40.9939 57.8338 41.8803 56.5042 43.3206 54.0668C43.099 56.9474 42.7666 58.6093 41.7695 61.2683C40.9939 63.4842 40.3292 64.7029 39.1105 66.808C40.8832 65.8108 41.7695 65.0353 43.2098 63.7058C44.6501 62.2655 45.4257 61.3791 46.4228 59.6064C46.5336 61.7115 46.6444 63.2626 45.8688 66.0324C45.5364 67.2511 44.9825 67.8051 44.2069 68.8022H0.333008V52.7373Z" stroke="white" stroke-width="0.15511" stroke-miterlimit="3.864"/>
</svg>
