<?xml version="1.0" encoding="UTF-8"?>
<svg id="Layer_1" xmlns="http://www.w3.org/2000/svg" version="1.1" viewBox="0 0 48 48">
  <!-- Generator: Adobe Illustrator 29.5.1, SVG Export Plug-In . SVG Version: 2.1.0 Build 141)  -->
  <defs>
    <style>
      .st0 {
        fill: #fff;
      }
    </style>
  </defs>
  <path class="st0" d="M6.12,36.95s.37-.21.4-.21h3.52c-1.04-3.53-2.9-6.79-4.95-9.82-.43-.64-1.81-2.23-2.02-2.74-.2-.49.02-1.23.64-1.22.47,0,2.63,1.64,3.13,2.03.55.43,1.18.93,1.7,1.4.04.04.09.08.14.12-.05-.05-.1-.09-.15-.13-.49-.45-1.15-.97-1.7-1.4-.5-.39-2.66-2.03-3.13-2.03-.62,0-.84.74-.64,1.22.21.52,1.59,2.11,2.02,2.74,2.05,3.03,3.9,6.29,4.95,9.82h-3.52s-.37.19-.4.21c-.31.31-.23.83.09,1.07-.31-.24-.39-.76-.08-1.06Z"/>
  <path class="st0" d="M22.64,33.47c1.47-3.86-1.17-7.55-5.01-7.61,3.83.07,6.41,3.89,5.01,7.61Z"/>
  <polygon class="st0" points="13.23 36.76 13.22 36.75 11.54 36.75 11.54 36.76 13.23 36.76"/>
  <polygon class="st0" points="26.73 36.76 26.72 36.75 21.96 36.75 21.95 36.76 26.73 36.76"/>
  <path class="st0" d="M16.85,25.9c-3.85.43-6.03,5.06-3.99,8.35-2.04-3.29.15-7.91,3.99-8.35Z"/>
  <path class="st0" d="M18.09,30.09c.41.76.94,1.15,1.46,1.26-.52-.11-1.05-.5-1.46-1.26Z"/>
  <path class="st0" d="M21.74,23.96c0,.16-.05.3-.13.41.09-.11.14-.26.14-.42,0-.39-.34-.77-.32-1.15,0,0,0-.01-.01-.02-.04.4.31.78.32,1.18Z"/>
  <path class="st0" d="M21.47,29.26c-.13-.41-.42-.84-.94-1.23.52.39.81.82.94,1.23Z"/>
  <path class="st0" d="M20.53,28.03c.06.2.09.39.09.57,0-.18-.03-.38-.09-.57Z"/>
  <path class="st0" d="M17.74,34.07c-.03-.06-.04-.11-.02-.14-.02.02,0,.07.02.14Z"/>
  <path class="st0" d="M18.02,34.51s-.02-.03-.03-.04c0,.01.02.03.03.04Z"/>
  <path class="st0" d="M20.25,32.51c0,1.24-1.31,2.17-2.53,1.42,1.22.75,2.53-.17,2.53-1.42Z"/>
  <path class="st0" d="M18.49,17.35c.43.1,2.48,2.44,2.88,2.94.81.99,1.41,2.01,2.13,3.02.03.05.02.19.16.12,0,0,0,0,0,0-.15.07-.13-.07-.16-.12-.73-1.01-1.33-2.04-2.13-3.02-.4-.49-2.45-2.84-2.88-2.94-.43-.1-.79.09-.9.44.12-.34.47-.52.89-.43Z"/>
  <path class="st0" d="M9.06,30.77c.62,1.22,1.18,2.48,1.68,3.77-.49-1.28-1.05-2.54-1.68-3.77Z"/>
  <path class="st0" d="M13.64,31.17c-.34.03-.71-.04-1.08-.23.38.19.75.26,1.08.23Z"/>
  <path class="st0" d="M23.85,23.17s0-.01.01-.02c0,0,0,.01-.01.02Z"/>
  <path class="st0" d="M23.7,23.38s.02-.02.04-.04c-.02.02-.02.03-.04.04Z"/>
  <path class="st0" d="M14.43,23.96c.1.67-.52,1.11-1.1.75,0,0,0,0,0,0,.59.38,1.21-.04,1.12-.74-.09-.69-1.33-2.07-1.67-2.75l-.02-.02c.34.68,1.58,2.08,1.68,2.76Z"/>
  <path class="st0" d="M16.87,23.1c.24.62-.46,1.2-1.07.81,0,0,0,0,0,0,.64.43,1.33-.17,1.09-.8-.11-.28-1.43-1.54-1.74-1.83-1.03-.95-3.7-3.22-4.89-3.73,0,0,0,0,0,0,1.2.53,3.86,2.77,4.87,3.72.31.29,1.64,1.55,1.74,1.83Z"/>
  <path class="st0" d="M8.93,28.49c-.64-.19-1.47-1.18-1.96-1.56.49.39,1.32,1.39,1.96,1.56Z"/>
  <path class="st0" d="M35.24,9.98c.7-.38,1.29,0,1.08.79-3.73,6.1-7.28,12.55-8.58,19.68l.02-.05c1.31-7.12,4.85-13.55,8.57-19.64.22-.79-.38-1.17-1.08-.79-.59.32-1.71,1.38-2.26,1.87-.8.7-1.56,1.44-2.3,2.2.74-.76,1.5-1.49,2.29-2.19.55-.49,1.67-1.55,2.26-1.87Z"/>
  <path class="st0" d="M37.12,17.94c.04.53-.84,1.86-1.12,2.45-2.22,4.7-4.45,10.47-4.23,15.74,0,.11-.07.35.09.33,0,0,0,0,0-.01-.14,0-.08-.21-.08-.33-.22-5.27,2.01-11.04,4.23-15.74.28-.59,1.15-1.91,1.12-2.45s-.47-.72-.95-.57c-.06.02-.18.11-.33.24.14-.13.26-.21.32-.23.48-.16.91.04.95.57Z"/>
  <path class="st0" d="M23.97,22.98s.04-.07.06-.11c-.02.04-.04.07-.06.11Z"/>
  <path class="st0" d="M43.15,18.27c.47.02.8.5.67.94-.27.43-.54.87-.8,1.31.27-.44.54-.89.81-1.32.13-.43-.22-.91-.67-.94-.47-.03-2.2,1.56-2.62,1.97-.28.26-.55.53-.82.81.27-.27.53-.54.81-.8.42-.4,2.15-1.99,2.62-1.97Z"/>
  <path class="st0" d="M24.04,22.86c.07-.12.14-.25.22-.37-.07.13-.15.26-.22.37Z"/>
  <path class="st0" d="M16.57,24.49c3.06-.42,5.49,1.01,6.81,3.13-1.32-2.12-3.75-3.56-6.82-3.14-5.45.74-7.83,7.48-4.14,11.52h0c-3.7-4.03-1.31-10.77,4.14-11.51Z"/>
  <path class="st0" d="M12.86,34.25c2.29,3.7,8.21,3.34,9.78-.78-1.5,3.97-7.49,4.48-9.78.78Z"/>
  <path class="st0" d="M30.38,36.74h0c-.03-.61-.04-1.21-.02-1.82-.02.6-.01,1.21.02,1.82Z"/>
  <path class="st0" d="M32.62,14.16s0,0-.01.01l-2.69,5.29c-1.41,3.15-2.68,6.39-3.39,9.78h0c.71-3.38,1.98-6.62,3.39-9.77l2.7-5.31Z"/>
  <path class="st0" d="M14.23,34.18c-.17-.02-.35-.07-.53-.15h-.01c.18.08.36.13.54.15Z"/>
  <path class="st0" d="M33.46,22.61s0-.01,0-.02c-2.16,2.81-3.73,6.11-4.66,9.54-.29,1.09-.64,2.3-.67,3.47.04-1.17.38-2.38.67-3.46.93-3.43,2.5-6.72,4.65-9.53Z"/>
  <path class="st0" d="M44.48,36.73h-6.8c-.3-3.16.66-6.46,1.83-9.37.46-1.15.98-2.24,1.54-3.32-.56,1.09-1.09,2.19-1.55,3.33-1.15,2.86-2.13,6.21-1.83,9.37h6.8c.37,0,.69.73.37,1.14.33-.41.02-1.15-.36-1.15Z"/>
  <path class="st0" d="M16.89,34.38c-.22.53-.67.8-1.16.87.5-.06.94-.33,1.17-.87.35-.84,0-2.03-.86-2.41,0,0,0,0,0,0,.86.39,1.2,1.57.85,2.4Z"/>
  <path class="st0" d="M33.28,36.75c.61-5.1,3.06-9.89,6.56-13.59-3.5,3.7-5.96,8.49-6.56,13.59Z"/>
  <polygon class="st0" points="24.51 24.94 26.53 29.26 26.53 29.25 24.51 24.94 24.51 24.94"/>
  <path d="M21.43,22.77s0,.02,0,.03c3,4.01,4.89,8.95,5.29,13.95h.01c-.4-5.02-2.3-9.97-5.3-13.98Z"/>
  <path d="M20.44,24.31c-.4-.58-.87-2.13-1.23-2.89-.51-1.1-1.1-2.16-1.63-3.25-.02-.14-.01-.27.02-.39-.04.12-.05.25-.03.4.53,1.09,1.11,2.16,1.63,3.25.35.75.83,2.31,1.23,2.89.33.47.92.4,1.18.05-.27.34-.85.4-1.17-.06Z"/>
  <path d="M21.94,36.75h.02c2.98-2.54,3.12-6.4,1.42-9.13,1.7,2.73,1.55,6.59-1.44,9.13Z"/>
  <polygon points="12.43 36.01 12.43 36.01 13.22 36.75 13.22 36.75 12.43 36.01"/>
  <path d="M11.54,36.75c-.24-.74-.51-1.48-.8-2.21.28.73.55,1.47.79,2.21h0Z"/>
  <path d="M23.86,23.15c.03-.05.07-.11.11-.17-.04.06-.07.12-.11.17Z"/>
  <path d="M43.02,20.52c-.7,1.15-1.36,2.32-1.97,3.52.61-1.2,1.27-2.37,1.97-3.52Z"/>
  <path d="M24.03,22.87s0,0,0-.01c0,0,0,0,0,.01Z"/>
  <path d="M23.7,23.38s-.03.03-.03.04c0,0,0,0,0,0,0,0,.02-.03.03-.04Z"/>
  <path d="M23.74,23.34s.07-.1.11-.17c-.04.07-.08.13-.11.17Z"/>
  <path d="M30.69,14.04c-2.22,2.29-4.18,4.84-5.9,7.52-.08.13-.3.53-.53.93.23-.4.46-.81.54-.94,1.72-2.68,3.68-5.22,5.89-7.51Z"/>
  <path d="M28.76,27.85c1.45-3.25,3.36-6.33,5.78-8.94.19-.2.88-.92,1.31-1.31-.44.38-1.13,1.11-1.32,1.32-2.42,2.61-4.33,5.7-5.78,8.94l-.99,2.54s0,.02,0,.04l1.01-2.59Z"/>
  <path d="M39.72,21.04c-4.02,4.12-7.22,9.69-7.86,15.41,0,0,0,0,0,0,.64-5.72,3.84-11.29,7.85-15.41Z"/>
  <path d="M9.55,28.25c-.16.25-.38.31-.62.24.25.07.47.02.63-.23.42-.67-.35-1.29-.88-1.75.51.45,1.29,1.08.87,1.74Z"/>
  <path d="M6.74,26.95c.22.53,1.16,1.7,1.52,2.33.28.49.54.99.8,1.49-.26-.5-.51-1-.79-1.48-.37-.64-1.3-1.8-1.52-2.33-.01-.04-.02-.15.05-.14.05.02.11.07.17.11-.07-.05-.13-.1-.18-.12-.07-.01-.07.1-.05.14Z"/>
  <path d="M6.6,38.14c-.15,0-.29-.05-.4-.13.11.09.25.14.41.14h37.68c.27-.03.45-.13.55-.27-.11.13-.28.23-.54.26H6.6Z"/>
  <polygon points="30.38 36.74 30.38 36.75 30.38 36.75 30.38 36.74 30.38 36.74"/>
  <path d="M44.47,36.74h-6.8c-.3-3.16.68-6.51,1.83-9.37.46-1.14.99-2.24,1.55-3.33.61-1.2,1.27-2.37,1.97-3.52.27-.44.53-.88.8-1.31.13-.44-.2-.92-.67-.94-.47-.02-2.2,1.57-2.62,1.97-.27.26-.54.52-.81.8-4.01,4.12-7.22,9.7-7.85,15.41,0,0,0,0,0,0,0,0,0,0,0,.01-.16.02-.09-.22-.09-.33-.22-5.27,2.01-11.04,4.23-15.74.28-.59,1.16-1.92,1.12-2.45-.04-.53-.47-.73-.95-.57-.06.02-.17.11-.32.23-.43.39-1.12,1.1-1.31,1.31-2.42,2.61-4.33,5.69-5.78,8.94l-1.01,2.59s0-.02,0-.04l-.02.05c1.3-7.13,4.85-13.58,8.58-19.68.21-.79-.38-1.17-1.08-.79-.59.32-1.71,1.38-2.26,1.87-.79.7-1.56,1.43-2.29,2.19-2.21,2.29-4.17,4.83-5.89,7.51-.08.12-.31.53-.54.94-.07.13-.15.26-.22.37,0,0,0,0,0,.01-.02.04-.04.07-.06.11-.04.06-.07.12-.11.17,0,0,0,.01-.01.02-.04.07-.08.13-.11.17-.02.02-.02.03-.04.04-.01.01-.03.03-.03.04,0,0,0,0,0,0,0,0,0,0,0,0-.14.07-.13-.07-.16-.12-.72-1.01-1.32-2.03-2.13-3.02-.4-.5-2.45-2.84-2.88-2.94-.42-.09-.77.09-.89.43-.04.11-.05.24-.02.39.53,1.09,1.12,2.15,1.63,3.25.36.76.83,2.31,1.23,2.89.32.46.9.4,1.17.06.08-.11.14-.25.13-.41-.01-.4-.36-.78-.32-1.18,0,0,0,.01.01.02,0,0,0-.02,0-.03,3,4.01,4.9,8.96,5.3,13.97h-.01s.01.02.01.02h-4.78s0,0,.01-.01h-.02c3-2.54,3.14-6.4,1.44-9.13-1.32-2.12-3.75-3.55-6.81-3.13-5.45.74-7.84,7.48-4.14,11.52l.79.74h0,.01s-1.69.01-1.69.01c0,0,0,0,0-.01h0c-.24-.74-.51-1.48-.79-2.21-.5-1.28-1.05-2.54-1.68-3.77-.26-.5-.52-1-.8-1.49-.36-.63-1.3-1.8-1.52-2.33-.02-.04-.02-.15.05-.14.05.03.12.07.18.12.49.38,1.32,1.37,1.96,1.56.24.06.46.01.62-.24.42-.66-.36-1.29-.87-1.74-.05-.04-.1-.08-.14-.12-.52-.47-1.15-.97-1.7-1.4-.5-.39-2.66-2.03-3.13-2.03-.62-.01-.84.73-.64,1.22.21.51,1.59,2.1,2.02,2.74,2.05,3.03,3.91,6.29,4.95,9.82h-3.52s-.38.19-.4.21c-.3.3-.23.82.08,1.06.11.08.24.13.4.13h37.7c.26-.02.43-.12.54-.26.31-.41,0-1.14-.37-1.14ZM12.86,34.25c-2.04-3.29.14-7.92,3.99-8.35.27-.03.53-.04.78-.04,3.84.06,6.48,3.74,5.01,7.61-1.57,4.12-7.49,4.48-9.78.78ZM26.53,29.25h0s-2.02-4.31-2.02-4.31c0,0,0,0,0,0h0c2.12-4,4.86-7.66,8.11-10.79v.02s0,0,0-.01l-2.7,5.31c-1.41,3.15-2.68,6.39-3.39,9.78ZM30.38,36.75h0s0,0,0,0h-2.16c-.07-.37-.09-.76-.08-1.15.03-1.17.38-2.38.67-3.47.93-3.43,2.5-6.73,4.66-9.54,0,0,0,.01,0,.02,0,0,0,0,0-.01-1.57,3.93-2.97,8.06-3.11,12.32-.02.6-.01,1.21.02,1.82h0ZM36.28,36.75h-3c.6-5.1,3.06-9.89,6.56-13.59-1.09,2.37-2.2,4.75-2.88,7.29-.53,2-.94,4.24-.68,6.3Z"/>
  <polygon points="30.38 36.75 30.38 36.74 30.38 36.74 30.38 36.75"/>
  <path d="M13.31,24.7s.01,0,.02,0c-.75-1.18-1.47-2.38-2.27-3.54-.33-.49-2.13-2.71-2.13-3.02-.02-.72.79-.83,1.33-.6,0,0-.01,0-.02,0-.53-.23-1.35-.12-1.33.6.01.32,1.8,2.54,2.13,3.02.79,1.16,1.52,2.36,2.27,3.54Z"/>
  <path d="M13.69,21.89l-.92-.68s0,0,0,0l.89.66c.69.48,1.49,1.61,2.11,2.02,0,0,.01,0,.02,0-.64-.43-1.42-1.54-2.11-2.02Z"/>
  <polygon points="12.77 21.2 12.75 21.19 12.77 21.21 12.77 21.2"/>
  <polygon points="12.75 21.19 12.75 21.2 12.78 21.22 12.77 21.21 12.75 21.19"/>
  <path d="M8.93,18.15c0,.31,1.8,2.53,2.13,3.02.8,1.16,1.52,2.36,2.27,3.54.58.36,1.2-.08,1.1-.75-.1-.68-1.34-2.08-1.68-2.76l-.02-.02h.02s.02.02.02.02c0,0,0,0,0,0l.92.68c.69.48,1.47,1.59,2.11,2.02.62.39,1.31-.18,1.07-.81-.1-.28-1.43-1.54-1.74-1.83-1.02-.95-3.68-3.19-4.87-3.72-.54-.23-1.35-.12-1.33.6Z"/>
  <polygon points="12.73 21.18 12.75 21.2 12.75 21.19 12.73 21.18"/>
  <path class="st0" d="M16.85,25.9c.27-.03.53-.04.78-.04-.26,0-.52,0-.78.04Z"/>
  <path class="st0" d="M32.62,14.15c-3.25,3.13-5.99,6.79-8.11,10.78h0c2.12-3.98,4.85-7.63,8.1-10.76v-.02Z"/>
  <path class="st0" d="M39.84,23.16c-1.09,2.37-2.21,4.75-2.88,7.29.68-2.54,1.79-4.92,2.88-7.29Z"/>
  <path class="st0" d="M28.22,36.74c-.07-.37-.09-.75-.08-1.14-.01.39.01.77.08,1.15h2.16s0,0,0-.01h-2.16Z"/>
  <path class="st0" d="M30.36,34.92c.14-4.27,1.54-8.39,3.11-12.32,0,0,0,0,0,.01-1.57,3.92-2.97,8.05-3.1,12.31Z"/>
  <polygon class="st0" points="30.38 36.76 30.38 36.75 30.38 36.75 30.38 36.76"/>
  <path d="M18.09,30.09c.41.76.94,1.14,1.46,1.26,1.17.25,2.29-.86,1.91-2.09-.13-.41-.42-.84-.94-1.23.06.2.09.39.09.57.03,1.28-1.24,2.09-2.53,1.49Z"/>
  <path d="M20.62,28.6c.02,1.28-1.24,2.09-2.53,1.49,1.3.6,2.56-.2,2.53-1.49Z"/>
  <path d="M19.55,31.35c1.17.26,2.3-.86,1.91-2.09.38,1.23-.74,2.34-1.91,2.09Z"/>
  <path d="M18.84,29.02c.65-.92.09-2.1-.75-2.67.51,1.53-.89,2.76-2.34,2.06.34,1.32,2.27,1.77,3.09.61Z"/>
  <path d="M15.73,35.25c.49-.07.94-.34,1.16-.87.35-.84.01-2.02-.85-2.4.43,1.31-.61,2.37-1.82,2.2-.18-.02-.36-.07-.54-.15.26.84,1.22,1.32,2.04,1.22Z"/>
  <path d="M16.04,31.98s0,0-.01,0c.44,1.31-.59,2.37-1.8,2.21,1.21.16,2.25-.89,1.82-2.2Z"/>
  <path d="M15.73,35.25c-.82.1-1.78-.38-2.04-1.22h-.01c.26.85,1.22,1.33,2.05,1.22Z"/>
  <path d="M15,28.88c.37,1.21-.35,2.2-1.36,2.29-.34.03-.71-.04-1.08-.23,1.67,3.04,5.11.15,2.44-2.06Z"/>
  <path d="M15,28.88c.36,1.21-.35,2.2-1.36,2.29,1.01-.09,1.73-1.08,1.36-2.29Z"/>
  <path d="M20.16,31.96c.06.19.09.37.09.55,0,1.25-1.31,2.17-2.53,1.42-.02.02,0,.07.02.14.05.12.16.28.25.41,0,.01.02.03.03.04.05.06.09.11.11.14,1.23,1.22,3.21.53,2.96-1.32-.07-.47-.46-1.2-.93-1.37Z"/>
  <path d="M18.13,34.65s-.06-.07-.11-.14c.05.07.09.12.11.14Z"/>
  <path d="M17.99,34.48c-.09-.13-.2-.29-.25-.41.05.12.16.28.25.41Z"/>
  <path d="M20.16,31.96c.06.19.09.37.09.55,0-.18-.03-.36-.09-.55Z"/>
  <path d="M20.16,31.96c.47.17.86.9.93,1.37-.07-.48-.46-1.2-.93-1.37Z"/>
</svg>