<?xml version="1.0" standalone="no"?>
<!DOCTYPE svg PUBLIC "-//W3C//DTD SVG 20010904//EN"
 "http://www.w3.org/TR/2001/REC-SVG-20010904/DTD/svg10.dtd">
<svg version="1.0" xmlns="http://www.w3.org/2000/svg"
 width="512.000000pt" height="512.000000pt" viewBox="0 0 512.000000 512.000000"
 preserveAspectRatio="xMidYMid meet">

<g transform="translate(0.000000,512.000000) scale(0.100000,-0.100000)"
fill="#000000" stroke="none">
<path d="M582 4034 c-31 -22 -28 -46 17 -121 70 -115 128 -280 155 -438 l7
-40 -37 55 c-60 87 -202 227 -289 285 -92 60 -117 70 -143 56 -28 -15 -32 -46
-11 -83 113 -196 163 -352 198 -613 18 -133 30 -395 24 -539 l-6 -136 -48 0
c-60 0 -91 -14 -112 -50 -15 -25 -17 -87 -17 -640 0 -678 -2 -658 65 -686 51
-21 4299 -21 4350 0 53 23 65 57 65 194 0 102 -3 121 -18 135 -26 23 -58 21
-76 -5 -12 -17 -16 -48 -16 -125 l0 -103 -2130 0 -2130 0 0 440 0 440 2130 0
2130 0 0 -97 c0 -54 3 -108 6 -120 6 -23 37 -39 64 -34 37 6 40 28 40 304 0
233 -2 273 -17 297 -21 36 -52 50 -112 50 l-48 0 -7 61 c-9 90 -7 264 4 419
26 348 91 603 194 765 51 79 46 125 -14 125 -63 0 -261 -156 -360 -285 l-43
-56 -47 128 c-74 201 -104 261 -135 269 -46 11 -60 -10 -122 -191 -18 -55 -36
-106 -39 -114 -3 -10 -26 6 -74 54 l-69 68 20 28 c10 15 19 38 19 51 0 51 -44
62 -110 28 l-39 -20 -52 25 c-57 26 -79 22 -99 -15 -9 -16 -6 -29 11 -60 l22
-39 -80 -85 c-45 -47 -102 -119 -129 -161 -26 -41 -49 -73 -52 -70 -6 6 35
138 64 204 14 31 43 86 65 123 29 48 39 73 34 88 -10 30 -44 40 -82 25 -87
-36 -251 -174 -333 -281 l-43 -55 -37 108 c-39 116 -100 262 -125 300 -10 15
-25 23 -45 23 -36 0 -50 -25 -105 -185 -21 -60 -41 -114 -45 -118 -4 -4 -20
14 -37 40 -48 78 -149 197 -211 251 -80 70 -180 132 -212 132 -51 0 -66 -49
-31 -98 33 -47 87 -165 115 -247 23 -72 68 -255 61 -255 -1 0 -22 28 -45 62
-24 34 -76 95 -116 136 l-73 76 21 28 c24 34 18 72 -13 89 -17 9 -30 6 -70
-14 l-50 -24 -48 25 c-47 25 -49 25 -75 9 -30 -20 -33 -47 -9 -87 l16 -28 -77
-84 c-43 -45 -105 -123 -137 -172 -32 -49 -59 -85 -59 -79 0 49 96 280 149
358 28 40 26 71 -3 91 -23 14 -28 14 -68 -4 -67 -30 -201 -136 -275 -218 l-67
-75 -37 108 c-45 137 -126 328 -144 343 -8 6 -26 10 -42 8 -35 -4 -47 -27
-110 -220 -26 -81 -51 -147 -54 -148 -3 0 -28 33 -55 72 -88 130 -226 262
-345 331 -53 31 -57 32 -87 11z m347 -407 c110 -163 189 -362 235 -587 l24
-118 -18 -109 c-11 -59 -22 -163 -26 -230 l-7 -123 -58 0 c-49 0 -59 3 -59 18
-1 55 -22 270 -35 347 -9 49 -31 146 -50 215 -19 72 -40 184 -50 264 -19 173
-46 304 -84 421 l-30 90 55 -58 c30 -32 76 -90 103 -130z m1702 -10 c109 -162
185 -353 230 -575 22 -113 22 -114 5 -230 -10 -64 -20 -159 -23 -212 -7 -148
-4 -142 -71 -138 l-57 3 -2 60 c-7 172 -43 391 -89 543 -14 46 -31 143 -39
215 -21 191 -51 338 -96 467 -10 30 -19 57 -19 60 2 13 107 -114 161 -193z
m-1338 61 c25 -68 52 -157 62 -199 l16 -77 -39 -78 c-21 -44 -47 -100 -57
-127 -10 -26 -19 -46 -21 -44 -2 2 -15 41 -28 88 -14 46 -38 117 -54 157 l-30
73 39 127 c51 167 62 202 65 202 1 0 22 -55 47 -122z m1677 -53 c18 -49 44
-128 56 -174 l23 -83 -28 -57 c-15 -31 -36 -77 -46 -103 -10 -27 -21 -48 -25
-48 -3 0 -12 22 -18 50 -6 27 -28 94 -48 147 -21 54 -37 106 -36 115 2 34 76
258 83 251 3 -5 21 -48 39 -98z m1305 -109 l46 -141 -34 -74 -35 -74 -20 46
c-11 25 -39 77 -61 116 l-41 70 37 116 c32 100 39 114 50 100 6 -10 33 -81 58
-159z m-3625 -106 c61 -90 144 -269 179 -386 37 -127 69 -312 77 -454 l7 -110
-150 0 -151 0 -5 293 c-6 368 -37 587 -111 792 l-25 70 68 -71 c38 -39 87 -99
111 -134z m1005 121 c-74 -217 -107 -470 -109 -818 l-1 -253 -147 0 -148 0 0
74 c0 157 47 413 106 576 37 104 103 232 162 315 51 73 152 188 158 182 2 -2
-7 -36 -21 -76z m364 -16 c-73 -220 -103 -458 -104 -802 l0 -253 -126 0 -126
0 -7 38 c-3 20 -6 109 -6 197 0 146 3 170 30 274 47 177 125 346 220 476 40
54 141 168 145 163 2 -2 -10 -43 -26 -93z m282 -41 c176 -227 288 -571 301
-919 l3 -90 -148 0 -148 0 -3 270 c-5 381 -41 618 -131 860 -10 27 74 -55 126
-121z m1049 50 c-73 -214 -101 -426 -106 -784 l-4 -275 -151 -3 -151 -3 7 98
c24 348 103 614 248 836 44 68 170 217 183 217 1 0 -10 -39 -26 -86z m377 27
c-27 -66 -68 -239 -89 -376 -15 -99 -21 -200 -25 -423 l-6 -293 -126 3 -126 3
-3 190 c-3 212 3 259 55 414 40 120 96 236 161 335 47 72 161 200 170 192 2
-3 -3 -23 -11 -45z m273 -102 c104 -140 193 -337 238 -534 26 -112 52 -305 52
-391 l0 -64 -150 0 -150 0 0 239 c0 370 -33 618 -111 840 -10 30 -19 58 -19
60 0 13 89 -83 140 -150z m615 71 c-69 -203 -105 -487 -105 -830 l0 -230 -54
0 -53 0 -7 103 c-9 140 -32 293 -62 413 l-25 101 26 69 c33 87 94 201 151 280
47 67 144 177 150 171 2 -2 -7 -37 -21 -77z m-2477 -172 c44 -193 55 -319 56
-608 l1 -275 -85 0 -85 0 1 270 c0 195 5 305 18 395 18 137 55 310 66 310 4 0
16 -42 28 -92z m1717 -168 c22 -151 39 -486 31 -612 l-8 -108 -77 0 -78 0 -6
119 c-7 145 7 446 29 590 16 111 41 228 52 245 8 14 37 -106 57 -234z m835
-920 l0 -100 -2130 0 -2130 0 0 100 0 100 2130 0 2130 0 0 -100z"/>
<path d="M730 1781 c-32 -61 -2 -81 125 -81 100 0 105 1 121 25 15 23 15 27 0
50 -16 24 -20 25 -126 25 -98 0 -110 -2 -120 -19z"/>
<path d="M1584 1775 c-15 -23 -15 -27 0 -50 16 -24 21 -25 121 -25 127 0 157
20 125 81 -10 17 -22 19 -120 19 -106 0 -110 -1 -126 -25z"/>
<path d="M2442 1788 c-7 -7 -12 -24 -12 -38 0 -44 16 -50 130 -50 114 0 130 6
130 50 0 44 -16 50 -130 50 -69 0 -110 -4 -118 -12z"/>
<path d="M3290 1781 c-32 -61 -2 -81 125 -81 100 0 105 1 121 25 15 23 15 27
0 50 -16 24 -20 25 -126 25 -98 0 -110 -2 -120 -19z"/>
<path d="M4144 1775 c-15 -23 -15 -27 0 -50 16 -24 21 -25 121 -25 127 0 157
20 125 81 -10 17 -22 19 -120 19 -106 0 -110 -1 -126 -25z"/>
<path d="M4710 1700 c-15 -15 -20 -33 -20 -78 0 -70 19 -102 60 -102 39 0 50
23 50 103 0 49 -4 68 -18 80 -25 22 -48 21 -72 -3z"/>
<path d="M1167 1522 c-21 -23 -22 -56 -1 -76 12 -12 38 -16 114 -16 107 0 130
10 130 54 0 44 -28 56 -132 56 -79 0 -98 -3 -111 -18z"/>
<path d="M2022 1524 c-27 -18 -29 -55 -4 -77 15 -13 39 -17 115 -17 84 0 100
3 117 20 11 11 20 27 20 35 0 8 -9 24 -20 35 -17 17 -33 20 -113 20 -68 0 -99
-4 -115 -16z"/>
<path d="M2870 1520 c-11 -11 -20 -27 -20 -35 0 -8 9 -24 20 -35 17 -17 33
-20 118 -20 106 0 132 11 132 58 0 38 -36 52 -137 52 -80 0 -96 -3 -113 -20z"/>
<path d="M3727 1522 c-21 -23 -22 -56 -1 -76 12 -12 38 -16 114 -16 107 0 130
10 130 54 0 44 -28 56 -132 56 -79 0 -98 -3 -111 -18z"/>
</g>
</svg>
