<svg xmlns="http://www.w3.org/2000/svg" viewBox="0 0 512 512" width="512" height="512"><title>blind (1)-svg</title><style>.s0 { fill: #000000 }.s1 { fill: none;stroke: #000000;stroke-miterlimit:100;stroke-width: 21 }</style><g id="Layer 1"><path id="Layer" class="s0" d="m0 0c169 0 337.9 0 512 0 0 119.5 0 238.9 0 362-9.9 0-19.8 0-30 0 0 49.5 0 99 0 150-149.2 0-298.3 0-452 0 0-49.5 0-99 0-150-9.9 0-19.8 0-30 0 0-119.5 0-238.9 0-362zm30 30c0 9.9 0 19.8 0 30 149.2 0 298.3 0 452 0 0-9.9 0-19.8 0-30-149.2 0-298.3 0-452 0zm0 60c0 79.9 0 159.7 0 242 149.2 0 298.3 0 452 0 0-79.9 0-159.7 0-242-149.2 0-298.3 0-452 0zm30 272c0 39.6 0 79.2 0 120 129.4 0 258.7 0 392 0 0-39.6 0-79.2 0-120-9.9 0-19.8 0-30 0 0 29.7 0 59.4 0 90-109.6 0-219.1 0-332 0 0-29.7 0-59.4 0-90-9.9 0-19.8 0-30 0zm60 0c0 19.8 0 39.6 0 60 89.8 0 179.5 0 272 0 0-19.8 0-39.6 0-60-89.8 0-179.5 0-272 0z"></path><path id="Shape 1" fill-rule="evenodd" class="s1" d="m256.1 389c-29.9 0-54.1-10.3-54.1-23 0-12.7 24.2-23 54.1-23 30 0 54.2 10.3 54.2 23 0 12.7-24.2 23-54.2 23z"></path><path id="Shape 2" fill-rule="evenodd" class="s1" d="m183 377.9l-23 14z"></path><path id="Shape 2 copy 4" fill-rule="evenodd" class="s1" d="m327.5 377.2l22 15.4z"></path><path id="Shape 2 copy" fill-rule="evenodd" class="s1" d="m214.6 396.8l-9.9 19.4z"></path><path id="Shape 2 copy 3" fill-rule="evenodd" class="s1" d="m297.6 396.4l12.1 18.2z"></path><path id="Shape 2 copy 2" fill-rule="evenodd" class="s1" d="m255.9 402l0.1 17.9z"></path></g></svg>