<svg xmlns="http://www.w3.org/2000/svg" viewBox="0 0 512 512" width="512" height="512"><title>window (1)-svg</title><style>.s0 { fill: #000000 }</style><g id="Layer 1"><path id="Layer" class="s0" d="m274.8 39.5c1.1 0 1.1 0 2.1 0q3.5 0 6.9 0 2.5 0 5 0 6.7-0.1 13.4 0 7 0 14.1 0 11.8-0.1 23.6 0 13.6 0 27.3 0 11.7-0.1 23.4 0 7 0 14 0 6.6-0.1 13.1 0 2.5 0 4.9 0 3.3 0 6.6 0c1.8 0 1.8 0 3.7 0 3.8 0.6 4.8 1.4 7.1 4.5 0.5 3.2 0.5 3.2 0.5 7.1q0 1.1 0 2.2 0 3.6 0 7.3 0 2.6 0 5.2 0 7.2 0 14.5 0 7.7 0 15.5 0.1 15.3 0 30.5 0 12.4 0 24.8 0 1.8 0 3.6 0 3.6 0 7.2 0.1 33.6 0 67.2 0 28.8 0 57.7 0.1 33.4 0 66.9 0 3.6 0 7.2c0 1.7 0 1.7 0 3.5q0 12.4 0 24.8 0.1 15.1 0 30.2 0 7.7 0 15.4 0 7 0 14.1 0 2.5 0 5.1 0 3.4 0 6.9 0 1.9 0 3.9c-0.6 3.8-1.4 5-4.5 7.2-3.1 0.5-3.1 0.5-6.8 0.5-1.1 0-1.1 0-2.1 0q-3.5 0-6.9 0-2.5 0-5 0-6.7 0.1-13.4 0-7 0-14.1 0-11.8 0.1-23.6 0-13.6 0-27.3 0-11.7 0.1-23.4 0-7 0-14 0-6.6 0.1-13.1 0-2.5 0-4.9 0-3.3 0-6.6 0c-1.8 0-1.8 0-3.7 0-3.8-0.6-4.8-1.4-7.1-4.5-0.5-3.2-0.5-3.2-0.5-7.1q0-1.1 0-2.2 0-3.6 0-7.3 0-2.6 0-5.2 0-7.2 0-14.5 0-7.7 0-15.5-0.1-15.3 0-30.5 0-12.4 0-24.8 0-1.8 0-3.6 0-3.6 0-7.2-0.1-33.6 0-67.2 0-28.8 0-57.7-0.1-33.4 0-66.9 0-3.6 0-7.2c0-1.7 0-1.7 0-3.5q0-12.4 0-24.8-0.1-15.1 0-30.2 0-7.7 0-15.4 0-7 0-14.1 0-2.5 0-5.1 0-3.4 0-6.9 0-1.9 0-3.9c1.1-6.8 5.1-7.7 11.3-7.7zm5.2 16.5c0 5.3 0 10.6 0 16 47.5 0 95 0 144 0 0-5.3 0-10.6 0-16-47.5 0-95 0-144 0zm0 32c0 5.3 0 10.6 0 16 47.5 0 95 0 144 0 0-5.3 0-10.6 0-16-47.5 0-95 0-144 0zm0 32c0 5.3 0 10.6 0 16 47.5 0 95 0 144 0 0-5.3 0-10.6 0-16-47.5 0-95 0-144 0zm0 32c0 5.3 0 10.6 0 16 47.5 0 95 0 144 0 0-5.3 0-10.6 0-16-47.5 0-95 0-144 0zm0 32c0 5.3 0 10.6 0 16 47.5 0 95 0 144 0 0-5.3 0-10.6 0-16-47.5 0-95 0-144 0zm0 32c0 5.3 0 10.6 0 16 47.5 0 95 0 144 0 0-5.3 0-10.6 0-16-47.5 0-95 0-144 0zm0 32c0 5.3 0 10.6 0 16 47.5 0 95 0 144 0 0-5.3 0-10.6 0-16-47.5 0-95 0-144 0zm0 32c0 5.3 0 10.6 0 16 47.5 0 95 0 144 0 0-5.3 0-10.6 0-16-47.5 0-95 0-144 0zm0 32c0 5.3 0 10.6 0 16 47.5 0 95 0 144 0 0-5.3 0-10.6 0-16-47.5 0-95 0-144 0zm0 32c0 5.3 0 10.6 0 16 47.5 0 95 0 144 0 0-5.3 0-10.6 0-16-47.5 0-95 0-144 0zm0 32c0 5.3 0 10.6 0 16 47.5 0 95 0 144 0 0-5.3 0-10.6 0-16-47.5 0-95 0-144 0zm0 32c0 5.3 0 10.6 0 16 47.5 0 95 0 144 0 0-5.3 0-10.6 0-16-47.5 0-95 0-144 0zm0 32c0 5.3 0 10.6 0 16 47.5 0 95 0 144 0 0-5.3 0-10.6 0-16-47.5 0-95 0-144 0z"></path><path id="Layer" class="s0" d="m82.8 39.5c1.1 0 1.1 0 2.1 0q3.5 0 6.9 0 2.5 0 5 0 6.7-0.1 13.4 0 7 0 14.1 0 11.8-0.1 23.6 0 13.6 0 27.3 0 11.7-0.1 23.4 0 7 0 14 0 6.6-0.1 13.1 0 2.5 0 4.9 0 3.3 0 6.6 0c1.8 0 1.8 0 3.7 0 3.8 0.6 4.8 1.4 7.1 4.5 0.5 3.2 0.5 3.2 0.5 7.1q0 1.1 0 2.2 0 3.6 0 7.3 0 2.6 0 5.2 0 7.2 0 14.5 0 7.7 0 15.5 0.1 15.3 0 30.5 0 12.4 0 24.8 0 1.8 0 3.6 0 3.6 0 7.2 0.1 33.6 0 67.2 0 28.8 0 57.7 0.1 33.4 0 66.9 0 3.6 0 7.2c0 1.7 0 1.7 0 3.5q0 12.4 0 24.8 0.1 15.1 0 30.2 0 7.7 0 15.4 0 7 0 14.1 0 2.5 0 5.1 0 3.4 0 6.9 0 1.9 0 3.9c-0.6 3.8-1.4 5-4.5 7.2-3.1 0.5-3.1 0.5-6.8 0.5-1.1 0-1.1 0-2.1 0q-3.5 0-6.9 0-2.5 0-5 0-6.7 0.1-13.4 0-7 0-14.1 0-11.8 0.1-23.6 0-13.6 0-27.3 0-11.7 0.1-23.4 0-7 0-14 0-6.6 0.1-13.1 0-2.5 0-4.9 0-3.3 0-6.6 0c-1.8 0-1.8 0-3.7 0-3.8-0.6-4.8-1.4-7.1-4.5-0.5-3.2-0.5-3.2-0.5-7.1q0-1.1 0-2.2 0-3.6 0-7.3 0-2.6 0-5.2 0-7.2 0-14.5 0-7.7 0-15.5-0.1-15.3 0-30.5 0-12.4 0-24.8 0-1.8 0-3.6 0-3.6 0-7.2-0.1-33.6 0-67.2 0-28.8 0-57.7-0.1-33.4 0-66.9 0-3.6 0-7.2c0-1.7 0-1.7 0-3.5q0-12.4 0-24.8-0.1-15.1 0-30.2 0-7.7 0-15.4 0-7 0-14.1 0-2.5 0-5.1 0-3.4 0-6.9 0-1.9 0-3.9c1.1-6.8 5.1-7.7 11.3-7.7zm5.2 16.5c0 5.3 0 10.6 0 16 47.5 0 95 0 144 0 0-5.3 0-10.6 0-16-47.5 0-95 0-144 0zm0 32c0 5.3 0 10.6 0 16 47.5 0 95 0 144 0 0-5.3 0-10.6 0-16-47.5 0-95 0-144 0zm0 32c0 5.3 0 10.6 0 16 47.5 0 95 0 144 0 0-5.3 0-10.6 0-16-47.5 0-95 0-144 0zm0 32c0 5.3 0 10.6 0 16 47.5 0 95 0 144 0 0-5.3 0-10.6 0-16-47.5 0-95 0-144 0zm0 32c0 5.3 0 10.6 0 16 47.5 0 95 0 144 0 0-5.3 0-10.6 0-16-47.5 0-95 0-144 0zm0 32c0 5.3 0 10.6 0 16 47.5 0 95 0 144 0 0-5.3 0-10.6 0-16-47.5 0-95 0-144 0zm0 32c0 5.3 0 10.6 0 16 47.5 0 95 0 144 0 0-5.3 0-10.6 0-16-47.5 0-95 0-144 0zm0 32c0 5.3 0 10.6 0 16 47.5 0 95 0 144 0 0-5.3 0-10.6 0-16-47.5 0-95 0-144 0zm0 32c0 5.3 0 10.6 0 16 47.5 0 95 0 144 0 0-5.3 0-10.6 0-16-47.5 0-95 0-144 0zm0 32c0 5.3 0 10.6 0 16 47.5 0 95 0 144 0 0-5.3 0-10.6 0-16-47.5 0-95 0-144 0zm0 32c0 5.3 0 10.6 0 16 47.5 0 95 0 144 0 0-5.3 0-10.6 0-16-47.5 0-95 0-144 0zm0 32c0 5.3 0 10.6 0 16 47.5 0 95 0 144 0 0-5.3 0-10.6 0-16-47.5 0-95 0-144 0zm0 32c0 5.3 0 10.6 0 16 47.5 0 95 0 144 0 0-5.3 0-10.6 0-16-47.5 0-95 0-144 0z"></path><path id="Layer" class="s0" d="m51.1 7.5c1.1 0 1.1 0 2.2 0q3.6 0 7.3 0 2.6 0 5.2 0 7.2 0 14.5 0 7.7 0 15.5 0 15.3-0.1 30.5 0 12.4 0 24.8 0 1.8 0 3.6 0 3.6 0 7.2 0 33.6-0.1 67.2 0 28.8 0 57.7 0 33.4-0.1 66.9 0 3.6 0 7.2 0c1.7 0 1.7 0 3.5 0q12.4 0 24.8 0 15.1-0.1 30.2 0 7.7 0 15.4 0 7 0 14.1 0 2.5 0 5.1 0 3.4 0 6.9 0 1.9 0 3.9 0c3.8 0.6 5 1.5 7.2 4.5 0.5 3 0.5 3 0.4 6.5 0 1.9 0 1.9 0 3.8-0.1 2-0.1 2-0.1 3.9q-0.1 2-0.1 4-0.1 4.9-0.2 9.8 1.2 0 2.5-0.1 5.6-0.1 11.3-0.2 1.9 0 3.9-0.1 1.9 0 3.8 0 1.7 0 3.5-0.1c3 0.5 3 0.5 5.4 2 2.4 3.7 2.2 7.1 2.1 11.5q0 1.3 0 2.6 0 2.8 0 5.6 0 4.2 0 8.4 0 2.7 0 5.4 0 1.3 0.1 2.6c-0.1 3.8-0.2 5.8-2.4 9-2.2 1.4-2.2 1.4-6.2 1.4 0 10.6 0 21.1 0 32q3 0.5 6 1c2.6 3.9 2.3 7.3 2.3 11.9q0 1.3 0.1 2.7 0 2.7 0 5.5 0 4.2 0 8.5 0.1 2.7 0.1 5.4 0 1.2 0 2.5 0 1.2 0 2.4 0 1.1 0 2.1c-0.5 2-0.5 2-4.5 6-9.2 0-18.5 0-28 0 0 58.1 0 116.2 0 176 9.2 0 18.5 0 28 0 4.5 4.5 4.5 4.5 4.5 8.1 0 1.1 0 1.1 0.1 2.3-0.1 1.3-0.1 1.3-0.1 2.6q0 1.3 0 2.6 0 2.8 0 5.6 0 4.2 0 8.4 0 2.7 0 5.4 0 1.3 0.1 2.6c-0.1 3.8-0.2 5.8-2.4 9-2.2 1.4-2.2 1.4-6.2 1.4 0 10.6 0 21.1 0 32q3 0.5 6 1c2.6 3.9 2.3 7.3 2.3 11.9q0 1.3 0.1 2.7 0 2.7 0 5.5 0 4.2 0 8.5 0.1 2.7 0.1 5.4c0 1.2 0 1.2 0 2.5 0 3.7-0.1 5.9-2.1 9-3.2 2-5.2 2-8.9 1.9q-1.9 0-3.8 0c-2-0.1-2-0.1-3.9-0.2q-2 0-4 0-4.9-0.1-9.8-0.2 0 1.2 0.1 2.5 0.1 5.6 0.2 11.2 0 2 0.1 4 0 1.9 0 3.8 0 1.7 0.1 3.5c-0.6 3.8-1.5 4.7-4.5 7-3.2 0.5-3.2 0.5-7.1 0.5q-1.1 0-2.2 0-3.6 0-7.3 0-2.6 0-5.2 0-7.2 0-14.5 0-7.7 0-15.5 0-15.3 0.1-30.5 0-12.4 0-24.8 0c-1.8 0-1.8 0-3.6 0q-3.6 0-7.2 0-33.6 0.1-67.2 0-28.8 0-57.7 0-33.4 0.1-66.9 0-3.6 0-7.2 0-1.7 0-3.5 0-12.4 0-24.8 0-15.1 0.1-30.2 0-7.7 0-15.4 0-7 0-14.1 0-2.5 0-5.1 0-3.4 0-6.9 0-1.9 0-3.9 0c-3.8-0.6-5-1.5-7.2-4.5-0.5-3-0.5-3-0.4-6.5q0-1.9 0-3.8 0.1-1.9 0.2-4c0-1.9 0-1.9 0-3.9q0.1-4.9 0.2-9.8-1.2 0-2.5 0.1-5.6 0.1-11.2 0.1c-2 0.1-2 0.1-4 0.2q-1.9 0-3.8 0-1.7 0-3.5 0.1c-3-0.5-3-0.5-5.4-2-2.4-3.7-2.2-7.1-2.1-11.5q0-1.3 0-2.6 0-2.8 0-5.6 0-4.2 0-8.4 0-2.7 0-5.4c0-1.3 0-1.3-0.1-2.6 0.1-3.8 0.2-5.8 2.4-9 2.2-1.4 2.2-1.4 6.2-1.4 0-10.6 0-21.1 0-32q-3-0.5-6-1c-2.6-3.9-2.3-7.3-2.3-11.9q0-1.3-0.1-2.7 0-2.7 0-5.5 0-4.2 0-8.5-0.1-2.7-0.1-5.4c0-1.2 0-1.2 0-2.5q0-1.2 0-2.4 0-1.1 0-2.1c0.5-2 0.5-2 4.5-6 9.2 0 18.5 0 28 0 0-58.1 0-116.2 0-176-9.2 0-18.5 0-28 0-4.5-4.5-4.5-4.5-4.5-8.1q0-1.1-0.1-2.3c0.1-1.3 0.1-1.3 0.1-2.6q0-1.3 0-2.6 0-2.8 0-5.6 0-4.2 0-8.4 0-2.7 0-5.4 0-1.3-0.1-2.6c0.1-3.8 0.2-5.8 2.4-9 2.2-1.4 2.2-1.4 6.2-1.4 0-10.6 0-21.1 0-32q-3-0.5-6-1c-2.6-3.9-2.3-7.3-2.3-11.9q0-1.3-0.1-2.7 0-2.7 0-5.5 0-4.2 0-8.5-0.1-2.7-0.1-5.4 0-1.2 0-2.5c0-3.7 0.1-5.9 2.1-9 3.2-2 5.2-2 8.9-1.9q1.9 0 3.8 0c2 0.1 2 0.1 4 0.1q1.9 0.1 3.9 0.1 4.9 0.1 9.8 0.2 0-1.2-0.1-2.5-0.1-5.6-0.1-11.3c-0.1-1.9-0.1-1.9-0.2-3.9q0-1.9 0-3.8 0-1.7-0.1-3.5c1.1-6.8 5.4-7.5 11.6-7.5zm4.9 16.5c0 153.1 0 306.2 0 464 132 0 264 0 400 0 0-153.1 0-306.2 0-464-132 0-264 0-400 0zm-32 32c0 5.3 0 10.6 0 16 5.3 0 10.6 0 16 0 0-5.3 0-10.6 0-16-5.3 0-10.6 0-16 0zm448 0c0 5.3 0 10.6 0 16 5.3 0 10.6 0 16 0 0-5.3 0-10.6 0-16-5.3 0-10.6 0-16 0zm-440 32c0 10.6 0 21.1 0 32 2.6 0 5.3 0 8 0 0-10.6 0-21.1 0-32-2.6 0-5.3 0-8 0zm440 0c0 10.6 0 21.1 0 32 2.6 0 5.3 0 8 0 0-10.6 0-21.1 0-32-2.6 0-5.3 0-8 0zm-448 48c0 5.3 0 10.6 0 16 5.3 0 10.6 0 16 0 0-5.3 0-10.6 0-16-5.3 0-10.6 0-16 0zm448 0c0 5.3 0 10.6 0 16 5.3 0 10.6 0 16 0 0-5.3 0-10.6 0-16-5.3 0-10.6 0-16 0zm-448 224c0 5.3 0 10.6 0 16 5.3 0 10.6 0 16 0 0-5.3 0-10.6 0-16-5.3 0-10.6 0-16 0zm448 0c0 5.3 0 10.6 0 16 5.3 0 10.6 0 16 0 0-5.3 0-10.6 0-16-5.3 0-10.6 0-16 0zm-440 32c0 10.6 0 21.1 0 32 2.6 0 5.3 0 8 0 0-10.6 0-21.1 0-32-2.6 0-5.3 0-8 0zm440 0c0 10.6 0 21.1 0 32 2.6 0 5.3 0 8 0 0-10.6 0-21.1 0-32-2.6 0-5.3 0-8 0zm-448 48c0 5.3 0 10.6 0 16 5.3 0 10.6 0 16 0 0-5.3 0-10.6 0-16-5.3 0-10.6 0-16 0zm448 0c0 5.3 0 10.6 0 16 5.3 0 10.6 0 16 0 0-5.3 0-10.6 0-16-5.3 0-10.6 0-16 0z"></path></g></svg>