<svg xmlns="http://www.w3.org/2000/svg" viewBox="0 0 512 512" width="512" height="512"><title>smart-svg</title><style>.s0 { fill: #000000 }</style><g id="Layer"><path id="Layer" class="s0" d="m2.5 2.5l-2.5 2.4v48.6 48.6l2.5 2.4c2.3 2.4 3 2.5 15 2.5h12.5v200 200.1l2.5 2.4 2.4 2.5h221.1 221.1l2.4-2.5 2.5-2.4v-200.1-200h12.5c12 0 12.7-0.1 15-2.5l2.5-2.4v-48.6-48.6l-2.5-2.4-2.4-2.5h-251.1-251.1zm494.5 51v38.5h-241-241v-38.5-38.5h241 241zm-30 68.5v15h-211-211v-15-15h211 211zm0 45v15h-211-211v-15-15h211 211zm0 45v15h-186-186.1l-2.4 2.5c-1.4 1.3-2.5 3.6-2.5 5 0 1.4 1.1 3.7 2.5 5l2.4 2.5h186.1 186v15 15h-211-211v-15-15h12.5c12 0 12.7-0.1 15-2.5 1.4-1.3 2.5-3.6 2.5-5 0-1.4-1.1-3.7-2.5-5-2.3-2.4-3-2.5-15-2.5h-12.5v-15-15h211 211zm0 90v15h-211-211v-15-15h211 211zm-407 102.5v72.6l2.5 2.4 2.4 2.5h81.8c89.6-0.1 84.5 0.3 86.3-6.1 0.6-2 1-31.6 1-73.6v-70.3h7 7v82.5 82.5h-101.5-101.5v-82.5-82.5h7.5 7.5zm158-5v67.5h-71.5-71.5v-67.5-67.5h71.5 71.5zm60 2.8c0 42 0.4 71.6 1 73.6 1.8 6.4-3.3 6 86.3 6.1h81.8l2.4-2.5 2.5-2.4v-72.6-72.5h7.5 7.5v82.5 82.5h-101.5-101.5v-82.5-82.5h7 7zm159-2.8v67.5h-71.5-71.5v-67.5-67.5h71.5 71.5z"></path></g></svg>