<svg version="1.2" xmlns="http://www.w3.org/2000/svg" viewBox="0 0 305 90" width="305" height="90">
	<title>All Seasons Living Black</title>
	<style>
		.s0 { fill: #000000 } 
	</style>
	<g id="Layer 1">
		<g>
		</g>
		<g>
		</g>
		<g>
		</g>
		<g>
		</g>
		<g>
		</g>
		<g>
		</g>
		<g>
		</g>
		<g>
		</g>
		<g>
		</g>
		<g>
		</g>
		<g>
		</g>
		<g>
		</g>
		<g>
			<path class="s0" d="m157 62.5h2.4v24.7h-2.4zm1.7 22.4h8.5v2.2h-8.5z"/>
			<path class="s0" d="m188.2 62.5v24.7h-2.5v-24.7z"/>
			<path class="s0" d="m206.7 62.5h2.6l4 21.9 4.1-21.9h2.6l-5 24.7h-3.3z"/>
			<path class="s0" d="m240.4 62.5v24.7h-2.4v-24.7z"/>
			<path class="s0" d="m259.8 62.5h2.3l7.8 20.3-0.4 0.4v-20.7h2.4v24.6h-2.3l-7.8-20.2 0.4-0.4v20.6h-2.4z"/>
			<path class="s0" d="m302.9 73.9v7.2q0 2-0.7 3.4-0.7 1.4-2 2.2-1.4 0.7-3.2 0.7c-1.3 0-2.4-0.2-3.3-0.7q-1.4-0.7-2.1-2-0.7-1.4-0.7-3.2v-12.9q0-2 0.7-3.4 0.7-1.4 2.1-2.2 1.3-0.7 3.2-0.7c1.2 0 2.2 0.2 3.1 0.7q1.3 0.7 2 2.1 0.7 1.4 0.7 3.3v1.2h-2.7v-1.2q0-1.2-0.3-2-0.4-0.9-1.1-1.3-0.7-0.5-1.7-0.5-1.2 0-1.9 0.5-0.8 0.5-1.2 1.4-0.4 0.8-0.4 2.1v12.9q0 1.1 0.4 1.9 0.4 0.8 1.2 1.3 0.8 0.4 2 0.4 1.1 0 1.8-0.5 0.8-0.4 1.2-1.3 0.4-0.9 0.4-2.1v-5h-3.5v-2.3h6z"/>
		</g>
		<g>
			<path class="s0" d="m9.4 30.1h3l9.2 24.6h-4.3l-6.4-18.3-6.4 18.3h-4.4l9.3-24.6zm-4.9 16.1h13v3.9h-13z"/>
			<path class="s0" d="m25 30.1h4.1v24.6h-4.1zm1.9 20.8h14.3v3.9h-14.3z"/>
			<path class="s0" d="m44.9 30.1h4.1v24.6h-4.1zm1.9 20.8h14.3v3.9h-14.3z"/>
			<path class="s0" d="m162.3 54.6q-1.6-0.3-3.1-1-1.4-0.7-2.6-1.7l2.1-3.2q1.5 1.2 3.2 1.8 1.8 0.6 3.8 0.6 2.5 0 3.8-0.9 1.4-0.8 1.4-2.5 0-1.1-0.6-1.8-0.6-0.6-1.6-1-1-0.3-2.5-0.5-0.1-0.1-0.1-0.1-0.1 0-0.1 0h-0.3q-2.5-0.5-4.1-1-1.6-0.6-2.7-2-1.1-1.5-1.1-4.1 0-2.4 1-4 1.1-1.7 3.1-2.6 2-0.8 4.8-0.8 1.3 0 2.7 0.3 1.3 0.3 2.6 0.8 1.2 0.6 2.5 1.5l-2 3.3q-1.4-1-2.9-1.6-1.5-0.5-2.9-0.5-2.3 0-3.6 0.9-1.3 0.8-1.3 2.4 0 1.2 0.7 1.9 0.6 0.6 1.6 1 1 0.3 2.8 0.6 0.1 0.1 0.1 0.1 0.1 0 0.1 0 0.1 0 0.2 0 0.1 0 0.2 0 2.3 0.5 3.8 1.1 1.6 0.7 2.6 2.1 1 1.4 1 3.9 0 2.3-1 4-1.1 1.6-3.2 2.5-2.1 0.8-5 0.8-1.8 0-3.4-0.3z"/>
			<path class="s0" d="m179.2 30.1h4v24.6h-4zm1.7 0h14.5v3.9h-14.5zm0 10.5h12.6v3.9h-12.6zm0 10.3h14.5v3.9h-14.5z"/>
			<path class="s0" d="m206.8 30.1h3l9.2 24.6h-4.3l-6.4-18.3-6.4 18.3h-4.3c0 0 9.2-24.6 9.2-24.6zm-4.9 16.1h13v3.9h-13z"/>
			<path class="s0" d="m225.2 54.6q-1.6-0.3-3-1-1.5-0.7-2.7-1.7l2.2-3.2q1.4 1.2 3.2 1.8 1.8 0.6 3.7 0.6 2.5 0 3.9-0.9 1.4-0.8 1.4-2.5 0-1.1-0.6-1.8-0.7-0.6-1.6-1-1-0.3-2.6-0.5 0-0.1-0.1-0.1 0 0-0.1 0h-0.3q-2.4-0.5-4-1-1.6-0.6-2.7-2-1.2-1.5-1.2-4.1 0-2.4 1.1-4 1-1.7 3-2.6 2-0.8 4.9-0.8 1.3 0 2.6 0.3 1.3 0.3 2.6 0.8 1.3 0.6 2.5 1.5l-2 3.3q-1.4-1-2.9-1.6-1.4-0.5-2.8-0.5-2.4 0-3.7 0.9-1.2 0.8-1.2 2.4 0 1.2 0.6 1.9 0.7 0.6 1.7 1 1 0.3 2.7 0.6 0.1 0.1 0.2 0.1 0 0 0.1 0 0.1 0 0.2 0 0.1 0 0.2 0 2.3 0.5 3.8 1.1 1.5 0.7 2.6 2.1 1 1.4 1 3.9 0 2.3-1.1 4-1.1 1.6-3.2 2.5-2 0.8-4.9 0.8-1.8 0-3.5-0.3z"/>
			<path class="s0" d="m245.5 53.9q-2-1.2-3.1-3.2-1.1-2.1-1.1-4.8v-7q0-2.7 1.1-4.8 1.1-2 3.1-3.2 2-1.1 4.6-1.1 2.6 0 4.6 1.1 2 1.2 3.1 3.2 1.1 2.1 1.1 4.8v7q0 2.7-1.1 4.8-1.1 2-3.1 3.2-2 1.1-4.6 1.1-2.6 0-4.6-1.1zm7.1-3.5q1-0.6 1.6-1.8 0.6-1.1 0.6-2.6v-7.2q0-1.5-0.6-2.6-0.6-1.1-1.6-1.7-1.1-0.6-2.5-0.6-1.4 0-2.4 0.6-1.1 0.6-1.7 1.7-0.6 1.1-0.6 2.6v7.2q0 1.5 0.6 2.6 0.6 1.2 1.7 1.8 1 0.6 2.4 0.6 1.4 0 2.5-0.6z"/>
			<path class="s0" d="m263.9 30.1h4.4l10.6 19-0.4 0.4v-19.4h3.9v24.6h-4.4l-10.6-18.7 0.4-0.4v19.1h-3.9z"/>
			<path class="s0" d="m292.3 54.6q-1.6-0.3-3-1-1.4-0.7-2.6-1.7l2.1-3.2q1.4 1.2 3.2 1.8 1.8 0.6 3.8 0.6 2.4 0 3.8-0.9 1.4-0.8 1.4-2.5 0-1.1-0.6-1.8-0.6-0.6-1.6-1-1-0.3-2.6-0.5 0-0.1-0.1-0.1 0 0-0.1 0h-0.3q-2.4-0.5-4-1-1.6-0.6-2.7-2-1.2-1.5-1.2-4.1 0-2.4 1.1-4 1.1-1.7 3-2.6 2-0.8 4.9-0.8 1.3 0 2.6 0.3 1.4 0.3 2.6 0.8 1.3 0.6 2.5 1.5l-2 3.3q-1.4-1-2.9-1.6-1.4-0.5-2.8-0.5-2.4 0-3.7 0.9-1.2 0.8-1.2 2.4 0 1.2 0.6 1.9 0.7 0.6 1.7 1 1 0.3 2.8 0.6 0 0.1 0.1 0.1 0 0 0.1 0 0.1 0 0.2 0 0.1 0 0.2 0 2.3 0.5 3.8 1.1 1.5 0.7 2.6 2.1 1 1.4 1 3.9 0 2.3-1.1 4-1.1 1.6-3.1 2.5-2.1 0.8-5 0.8-1.8 0-3.5-0.3z"/>
		</g>
		<path class="s0" d="m83.9 68.2c-3.9 2.5-6.3 1.8-8.3-2.5-1.9-4.2-3.7-8.4-5.6-12.7-1.4-3.3-1-4.4 0.4-7.2 0 0 13.2 7.3 16.7 19.5 0 0 0.4 0.8-1.3 1.6l-1.9 1.3z"/>
		<path class="s0" d="m70.4 33.9c0 0 21.2 16.9 22.2 28.5 0 0 4.1-2.7 5-2.6 0 0-8.1-17.3-27.2-25.9z"/>
		<path class="s0" d="m97.3 49.1c0-0.4 0-0.9 0-1.3 0.1-2.4 0-4.2-0.1-6.7q-0.1-2.9-0.4-5.9-0.3-2.2-0.7-4.5-0.2-1.5-0.6-3c-0.1-0.7-0.3-1.5-0.7-2.1-0.5-0.7-1.6-1-2.4-0.8-0.4 0.1-0.8 0.3-1.1 0.6q-0.3 0.2-0.6 0.5c-0.1 0.1-0.3 0.4-0.5 0.5-6.2 6-1.5 1.6-7.7 7.5 0 0 13.9 11.1 14.8 15.2z"/>
		<path class="s0" d="m105.2 58.8c0 0 2.1 0.1 4.2 1.2 0 0 1.8-37-26.9-57.1 0 0 20.4 20.9 22.7 55.9z"/>
		<path class="s0" d="m132.5 27.1c0 0-9.2 7-8.8 30.6 0 0 10-11.1 22.1-14.9l4.2-1c0 0-3.3-0.7-9-0.7 0 0-2.3-5.4-8.5-14z"/>
		<path class="s0" d="m150 42.7c0 0-4.2 24.5-14.8 30.9 0 0-2.6 1.9-5.8 1.5-3.2-0.4-6.8-2.2-6.7-3 0-0.7 11.6-21.8 27.3-29.4z"/>
		<path class="s0" d="m127.4 27.2c0 0-6.5 6.9-8.1 11.8-1.5 4.6-1.1 4.2 0.1 11.8 0 0 0-11.2 8-23.6z"/>
		<path class="s0" d="m112.5 18.1c0 0-5.4 6.9 0 43.6v0.3c0 0 1.7 1.4 4.4 4.3 0 0-8.6-36.9-4.4-48.2z"/>
		<path class="s0" d="m114.2 27.1c0 0 7 7.9 5.1 23.4 0 0-3.1-13.3-5.1-23.4z"/>
		<path class="s0" d="m135.1 78.9c-2.5 0-5.1 0-7.6 0.1-1.4 0-1.9 0.8-1.6 2.2 0.6 2.1 2.1 5.7 4.4 6.5 0.6 0.2 1.2 0.2 1.9 0 2.5-0.7 3.9-4.1 4.5-6.4 0.4-1.4 0-2.3-1.6-2.4z"/>
		<g>
		</g>
		<g>
		</g>
	</g>
</svg>